<svg width="48" height="48" viewBox="0 0 48 48" fill="none" xmlns="http://www.w3.org/2000/svg">
<path fill-rule="evenodd" clip-rule="evenodd" d="M24 48C37.2548 48 48 37.2548 48 24C48 10.7452 37.2548 0 24 0C10.7452 0 0 10.7452 0 24C0 37.2548 10.7452 48 24 48Z" fill="#C7A17A"/>
<path d="M28.1613 15.2557C27.8344 14.9148 27.2902 14.9148 26.9518 15.2557C26.6248 15.585 26.6248 16.1332 26.9518 16.4618L33.0848 22.6401H12.8467C12.375 22.6409 12 23.0186 12 23.4939C12 23.9691 12.375 24.3591 12.8467 24.3591H33.0848L26.9518 30.5259C26.6248 30.8668 26.6248 31.4157 26.9518 31.7443C27.2902 32.0852 27.8351 32.0852 28.1613 31.7443L35.7462 24.1035C36.0846 23.7741 36.0846 23.2259 35.7462 22.8973L28.1613 15.2557Z" fill="#F9FBFF"/>
</svg>
